<?xml version="1.0" standalone="no"?>
<!DOCTYPE svg PUBLIC "-//W3C//DTD SVG 20010904//EN"
 "http://www.w3.org/TR/2001/REC-SVG-20010904/DTD/svg10.dtd">
<svg version="1.0" xmlns="http://www.w3.org/2000/svg"
 width="381.000000pt" height="82.000000pt" viewBox="0 0 381.000000 82.000000"
 preserveAspectRatio="xMidYMid meet">

<g transform="translate(0.000000,82.000000) scale(0.100000,-0.100000)"
fill="#000000" stroke="none">
<path d="M185 606 c-54 -95 -99 -177 -99 -182 1 -5 46 -87 100 -181 l99 -173
205 0 205 0 100 174 c54 95 99 177 99 181 0 4 -45 86 -99 181 l-100 174 -205
0 -205 0 -100 -174z m355 -93 c77 -45 135 -84 135 -93 0 -15 -256 -170 -281
-170 -11 0 -14 31 -14 163 0 151 3 177 19 177 3 0 67 -35 141 -77z"/>
<path d="M1200 420 l0 -260 45 0 45 0 0 110 0 110 60 0 60 0 0 45 0 45 -60 0
-60 0 0 60 0 60 70 0 70 0 0 45 0 45 -115 0 -115 0 0 -260z"/>
<path d="M1500 420 l0 -260 45 0 45 0 0 89 0 88 87 -88 87 -89 63 0 c35 0 63
3 63 7 0 4 -32 40 -71 79 l-72 72 41 21 c51 26 83 71 90 126 7 64 -5 111 -39
149 -43 49 -101 66 -231 66 l-108 0 0 -260z m247 150 c43 -26 54 -80 26 -118
-27 -36 -60 -52 -110 -52 -24 0 -48 -7 -57 -16 -15 -14 -16 -5 -16 95 l0 111
63 0 c44 0 71 -6 94 -20z"/>
<path d="M1970 420 l0 -260 115 0 115 0 0 45 0 45 -70 0 -70 0 0 65 0 65 60 0
60 0 0 45 0 45 -60 0 -60 0 0 60 0 60 70 0 70 0 0 45 0 45 -115 0 -115 0 0
-260z"/>
<path d="M2280 420 l0 -260 115 0 115 0 0 45 0 44 -67 3 -68 3 -3 63 -3 62 61
0 60 0 0 45 0 45 -60 0 -60 0 0 60 0 60 70 0 70 0 0 45 0 45 -115 0 -115 0 0
-260z"/>
<path d="M2760 671 c-84 -26 -142 -84 -166 -167 -38 -131 26 -271 145 -322 54
-23 175 -20 231 5 200 89 194 406 -9 478 -45 16 -157 19 -201 6z m177 -97 c82
-40 115 -142 73 -228 -71 -147 -311 -112 -335 49 -8 51 12 120 43 148 53 48
152 62 219 31z"/>
<path d="M3180 436 c0 -209 2 -247 16 -260 8 -9 18 -16 20 -16 18 0 60 33 137
108 l87 87 98 -98 97 -97 65 0 65 0 -130 130 -130 130 130 130 130 130 -65 0
-65 0 -175 -175 c-96 -96 -178 -175 -182 -175 -5 0 -8 79 -8 175 l0 175 -45 0
-45 0 0 -244z"/>
</g>
</svg>
