<?xml version="1.0" encoding="UTF-8"?>
<svg width="153px" height="36px" viewBox="0 0 153 36" version="1.1" xmlns="http://www.w3.org/2000/svg" xmlns:xlink="http://www.w3.org/1999/xlink">
    <title>编组 14</title>
    <defs>
        <rect id="path-1" x="0" y="0" width="153" height="36" rx="18"></rect>
        <linearGradient x1="43.5866757%" y1="0%" x2="43.5866757%" y2="107.124917%" id="linearGradient-3">
            <stop stop-color="#FFFFFF" stop-opacity="0.1" offset="0.0573645105%"></stop>
            <stop stop-color="#FFFFFF" stop-opacity="0" offset="100%"></stop>
        </linearGradient>
    </defs>
    <g id="PCW" stroke="none" stroke-width="1" fill="none" fill-rule="evenodd">
        <g id="改动概述" transform="translate(-157, -589)">
            <g id="编组-14" transform="translate(157, 589)">
                <mask id="mask-2" fill="white">
                    <use xlink:href="#path-1"></use>
                </mask>
                <use id="蒙版" fill-opacity="0.06" fill="#FFFFFF" xlink:href="#path-1"></use>
                <path d="M135,0 C144.941125,0 153,8.0588745 153,18 C153,27.9411255 144.941125,36 135,36 L18,36 C8.0588745,36 0,27.9411255 0,18 C0,8.0588745 8.0588745,0 18,0 L135,0 Z M135,1.25 L18,1.25 C8.74923044,1.25 1.25,8.74923044 1.25,18 C1.25,27.2507696 8.74923044,34.75 18,34.75 L135,34.75 C144.25077,34.75 151.75,27.2507696 151.75,18 C151.75,8.74923044 144.25077,1.25 135,1.25 Z" id="蒙版" fill="url(#linearGradient-3)" fill-rule="nonzero" mask="url(#mask-2)"></path>
                <g id="iQIYI横版logog备份" mask="url(#mask-2)" fill="#00B84D" fill-rule="nonzero">
                    <g transform="translate(19, 9)" id="形状结合">
                        <path d="M114.863779,1.42552607 L112.92714,1.42552607 C112.895898,1.42753742 112.865194,1.41676072 112.842232,1.39572433 C112.81927,1.37468795 112.80607,1.34524332 112.80573,1.31429858 L112.80573,1.28941875 L112.80573,1.28941875 L112.80573,0.137628811 L112.80573,0.137628811 C112.806125,0.101277998 112.791793,0.0662813986 112.765927,0.0404389136 C112.74006,0.0145964287 112.70481,5.79675419e-05 112.668033,5.79675419e-05 L110.242792,5.79675419e-05 C110.166505,0.000860205608 110.105091,0.0622184219 110.105095,0.137628811 L110.105095,1.28941875 L110.105095,1.28941875 L110.105095,1.32454322 C110.098861,1.38448412 110.046026,1.42897218 109.985166,1.42552607 L103.682205,1.42552607 C103.650963,1.42753742 103.620259,1.41676072 103.597297,1.39572433 C103.574335,1.37468795 103.561135,1.34524332 103.560794,1.31429858 L103.560794,1.29966339 C103.560075,1.29628548 103.560075,1.29279665 103.560794,1.28941875 L103.560794,1.28941875 L103.560794,0.137628811 C103.560799,0.0622184219 103.499384,0.000860205608 103.423098,5.79675419e-05 L101.002299,5.79675419e-05 C100.925433,5.79675419e-05 100.863121,0.0616505323 100.863121,0.137628811 L100.863121,1.28941875 L100.863121,1.28941875 L100.863121,1.32454322 C100.856909,1.38389115 100.804975,1.42816749 100.744672,1.42552607 L98.8198778,1.42552607 C98.7880052,1.42267984 98.7563666,1.43303407 98.7325097,1.45411873 C98.7086528,1.47520339 98.6947167,1.50512786 98.6940259,1.53675356 L98.6940259,3.33834621 L98.6940259,3.33834621 C98.6948375,3.41375233 98.7569123,3.4744578 98.8332033,3.47445353 L100.720982,3.47445353 C100.827586,3.47445353 100.852757,3.53592136 100.857199,3.57543639 L100.857199,3.61056086 L100.857199,3.61056086 L100.857199,5.00529505 C100.857199,5.08127333 100.919511,5.1428659 100.996376,5.1428659 L103.420136,5.1428659 C103.496423,5.14206366 103.557838,5.08070544 103.557833,5.00529505 L103.557833,3.61202438 L103.557833,3.61202438 C103.557327,3.60862785 103.557327,3.60517627 103.557833,3.60177974 L103.557833,3.58129047 C103.557833,3.54177544 103.580042,3.4715265 103.69553,3.47006298 L109.962957,3.47006298 C110.06808,3.47006298 110.094731,3.5315308 110.099173,3.57104583 L110.099173,3.6061703 L110.099173,3.6061703 L110.099173,5.00090449 C110.099169,5.07631488 110.160583,5.1376731 110.23687,5.13847534 L112.66063,5.13847534 C112.737496,5.13847534 112.799807,5.07688277 112.799807,5.00090449 L112.799807,3.61202438 L112.799807,3.61202438 L112.799807,3.58129047 C112.799807,3.54177544 112.820536,3.4715265 112.937504,3.47006298 L114.862299,3.47006298 C114.938346,3.47006298 114.999995,3.40912565 114.999995,3.33395565 L114.999995,1.5616334 C114.999995,1.48703125 114.939248,1.42632825 114.863779,1.42552607 Z M64.3701275,2.42987149 C64.3718188,2.47055895 64.3968983,2.5088873 64.4393141,2.53560751 C64.4817298,2.56232772 64.5376291,2.57501277 64.5935228,2.57060162 C65.9193887,2.57060162 72.9360338,2.49288498 74.4214678,2.49288498 C75.5660063,2.49288498 77.6781079,2.41411811 78.805239,2.27548843 C78.8734181,2.26708663 78.9793133,2.21562561 78.9503009,2.08329727 C78.9212885,1.95096894 78.702245,1.06772981 78.6601771,0.973209566 C78.648859,0.934139985 78.6159352,0.900130395 78.5690701,0.879098035 C78.522205,0.858065675 78.4654876,0.851845571 78.4121212,0.861885727 C76.944086,1.00749011 75.4636562,1.0776805 73.9819302,1.07193071 C73.9819302,1.07193071 64.8285231,1.14964735 64.5935228,1.14964735 C64.5339099,1.14571284 64.47483,1.16048288 64.4312724,1.19021012 C64.3877148,1.21993735 64.3638656,1.26176492 64.3656691,1.30508063 L64.3701275,2.42987149 Z M69.263341,6.85713521 C69.3009094,6.85747284 69.3366893,6.87332886 69.3622748,6.90099113 C69.3878603,6.9286534 69.4009963,6.96568369 69.3985969,7.00338253 C69.3796901,7.20372373 69.3622378,7.34557114 69.3375136,7.53713826 C69.3372409,7.55761109 69.3429674,7.58393329 69.3855076,7.58393329 L78.8185105,7.58393329 C78.8547683,7.58393329 78.8895411,7.59841568 78.9151792,7.6241945 C78.9408174,7.64997332 78.9552207,7.68493691 78.9552207,7.72139367 L78.9552207,9.39577809 C78.9552207,9.46976024 78.896435,9.53018511 78.8228736,9.53177612 L68.9884663,9.53177612 C68.9462897,9.53177612 68.9317461,9.58295818 68.9317461,9.58295818 L68.8281227,9.95293133 L68.7150459,10.3229045 C68.7114973,10.3408036 68.7112646,10.3726242 68.7659486,10.3726242 L77.1867145,10.3726242 C78.2178583,10.3726242 78.2149496,11.3670184 78.1640469,11.6477886 C78.0182933,12.3646828 77.7400595,13.0477153 77.3437857,13.6614369 C77.020917,14.1805692 76.3897232,14.8517853 75.8079777,15.3665306 C76.6282388,15.6078174 77.4674067,15.733579 78.7879689,15.7818364 C78.8282137,15.7751612 78.8691908,15.7884028 78.8980328,15.817403 C78.9268747,15.8464032 78.940044,15.8876052 78.9334053,15.9280708 L78.9334053,17.8598279 C78.9334053,17.9592673 78.8665045,17.9943636 78.7879689,17.9943636 C76.7699937,17.9883962 74.767778,17.6367904 72.8672543,16.9546367 C70.8209646,17.6390139 68.4750759,18.0236105 66.5625876,17.9987506 C66.4985956,17.9972883 66.3691573,17.9841272 66.3691573,17.8378927 L66.3691573,15.9368449 C66.3689053,15.8951062 66.3864038,15.8552484 66.4172454,15.8273107 C66.448087,15.799373 66.4893319,15.7860184 66.5305916,15.7906105 C67.7119627,15.7969461 68.8897801,15.6599584 70.0385169,15.3826164 C69.2483023,14.785807 68.5709892,14.0512853 68.0387668,13.2139595 C68.0050039,13.1553328 67.8577646,12.8761579 68.1420266,12.8761579 L70.6464409,12.8761579 C70.7171804,12.8680629 70.7878901,12.8915839 70.8398713,12.9405011 C71.3883206,13.6478835 72.1009223,14.2092434 72.9152483,14.5754022 L72.9894208,14.5373813 L73.0897719,14.4788875 C74.3288898,13.7857362 74.8786393,12.9682856 75.1142462,12.3745738 C75.1389704,12.3131553 75.2611369,12.1025777 75.0080776,12.1025777 L68.1536615,12.1025777 C68.0562192,12.1025777 68.0344037,12.1639962 68.0344037,12.1639962 L67.7735662,12.7482468 C66.9694424,14.4904101 65.9715087,16.1361032 64.7984445,17.6536373 C64.748164,17.7154625 64.6593954,17.7287559 64.5933792,17.6843466 C64.5119348,17.6360892 62.7419742,16.4135692 62.7027064,16.38286 C62.7027064,16.38286 62.5950835,16.3214415 62.685254,16.1752071 C64.3301394,13.9904644 65.5416243,11.7706255 66.1757269,9.56833474 C66.1844531,9.53470081 66.1422765,9.53470081 66.1422765,9.53470081 L63.7294872,9.53470081 C63.6547874,9.53470081 63.5942313,9.47381242 63.5942313,9.39870278 L63.5942313,7.72724305 C63.5938429,7.69092142 63.6079213,7.65595292 63.633329,7.63013119 C63.6587366,7.60430945 63.6933617,7.58978057 63.7294872,7.58978267 L66.5553158,7.58978267 C66.5720189,7.59158224 66.5872619,7.58008728 66.5902205,7.56346047 L66.613652,7.37102676 C66.6275492,7.24515682 66.6382146,7.12816926 66.6469407,6.9858344 C66.648703,6.95739977 66.6593971,6.93026167 66.6774824,6.90833014 C66.7029602,6.87550906 66.742247,6.85656955 66.7836509,6.85713521 Z M77.2886411,3.42908654 C77.3252527,3.42604782 77.3615373,3.43725117 77.3878175,3.45970863 C77.4140978,3.48216609 77.4277012,3.51359389 77.4249998,3.54561012 L77.4249998,4.39510464 L77.4275134,4.41304287 L77.4381004,4.42857308 C77.4476559,4.43762922 77.4611326,4.44276174 77.4752372,4.44271643 L78.8215997,4.44271643 C79.6225275,4.44271643 79.7990761,4.93011077 79.8134296,5.56660519 L79.8134296,6.73810574 C79.8098251,6.80249557 79.7508352,6.85398871 79.677071,6.85713521 L77.3144775,6.85713521 C77.170942,6.85713521 77.170942,6.73184103 77.170942,6.73184103 L77.170942,6.22439961 C77.170942,6.12917604 77.1451057,6.07028778 77.0015702,6.07028778 L66.2780368,6.07028778 C66.2439407,6.06857298 66.2105278,6.07912308 66.1855783,6.09948147 C66.1606288,6.11983986 66.1463202,6.14822984 66.1459842,6.17804077 L66.1459842,6.64789393 C66.1459842,6.64789393 66.1560317,6.77318811 65.9880952,6.77318811 L63.667127,6.77318811 C63.6248604,6.77735409 63.5826539,6.76494164 63.5518922,6.7392988 C63.5211304,6.71365597 63.504982,6.67742414 63.5078027,6.64037628 L63.5078027,4.62314004 C63.5044005,4.57340678 63.5264776,4.52492326 63.5680643,4.49079978 C63.6096509,4.4566763 63.6664512,4.44043778 63.7231058,4.44647525 L65.7139425,4.44647525 C65.7281592,4.44649442 65.7417568,4.44139978 65.7515343,4.43239074 C65.7613117,4.42338171 65.7664051,4.41125424 65.7656153,4.39886346 L65.7656153,3.5568866 C65.7656153,3.48768854 65.8298783,3.43159242 65.9091507,3.43159242 L68.1485422,3.43151532 C68.1731708,3.43473545 68.1964377,3.44435347 68.2150933,3.45949828 C68.2430767,3.48221548 68.2576035,3.5148668 68.2545199,3.54811601 L68.2545199,4.39761052 L68.2570335,4.41554875 L68.2676206,4.43107896 C68.2771761,4.4401351 68.2906528,4.44526763 68.3047574,4.44522231 L70.2841112,4.44522231 C70.2983279,4.44524148 70.3119255,4.44014684 70.321703,4.4311378 C70.3314804,4.42212877 70.3365738,4.4100013 70.335784,4.39761052 L70.335784,3.55563366 C70.335784,3.48643559 70.400047,3.43033948 70.4793194,3.43033948 L72.7758866,3.43033948 C72.8133211,3.42665994 72.8507306,3.43742748 72.878316,3.45982163 C72.9059015,3.48221578 72.9209143,3.51400527 72.919422,3.54686306 L72.919422,4.39635758 C72.918213,4.40862441 72.9229671,4.42076988 72.9325227,4.42982602 C72.9420782,4.43888216 72.9555549,4.44401469 72.9696594,4.44396937 L74.8844223,4.44396937 C74.898639,4.44398853 74.9122367,4.4388939 74.9220141,4.42988486 C74.9317916,4.42087583 74.9368849,4.40874836 74.9360951,4.39635758 L74.9360951,3.55438071 C74.9360951,3.48518265 75.0003581,3.42908654 75.0796305,3.42908654 Z M82.5234366,3.21541249 L87.2479712,3.21541249 C87.2677096,3.21541249 87.3057766,3.21541249 87.2789887,3.25447024 C86.2074739,4.34390253 84.4592128,4.75121909 82.98447,4.97440624 C82.8350218,4.99811988 82.7419692,5.02183351 82.7419692,5.21014767 L82.7419692,6.70271176 C82.7419692,6.88684116 82.882958,6.85894277 82.9548623,6.85057325 C84.6805652,6.65667941 86.6572281,6.10150137 87.8091066,5.32592601 C88.6042834,4.79027684 89.2189946,4.3132143 89.7138652,3.65202236 C91.0842764,5.5658522 93.2611434,6.54648075 96.6420547,6.84917833 C96.7069096,6.84917833 96.8380292,6.83104437 96.8380292,6.70968636 L96.8380292,5.16132548 C96.8380292,4.98696052 96.739337,4.98975036 96.663203,4.98277576 C94.8303487,4.78609208 93.0130031,4.19464612 92.0810671,3.25447024 C92.0542793,3.21959725 92.0923462,3.21401757 92.1106748,3.21401757 L96.8478984,3.21401757 C96.8478984,3.21401757 96.9776081,3.21401757 96.9776081,3.09265955 L96.9776081,1.36993371 C96.9776081,1.24020618 96.8225204,1.24718078 96.8225204,1.24718078 L91.1688696,1.24718078 C91.0913258,1.24718078 91.075817,1.19277891 91.0744071,1.16488052 L91.0744071,1.14535164 L91.0744071,1.14535164 L91.0744071,0.117295816 C91.0767508,0.0872597929 91.0664028,0.0576067116 91.0458279,0.0353996506 C91.025253,0.0131925896 90.9962929,0.000419410214 90.9658458,5.79675419e-05 L88.4097189,5.79675419e-05 C88.3738018,-0.00106375097 88.3393256,0.0141436978 88.3162111,0.0413687254 C88.2930967,0.068593753 88.2839077,0.104816953 88.2912883,0.139614532 L88.2912883,1.14535164 L88.2912883,1.14535164 L88.2912883,1.16627544 C88.2912883,1.19417383 88.2729597,1.23881126 88.1982357,1.24578586 L82.5079278,1.24578586 C82.4775776,1.24307304 82.4474503,1.25294193 82.4247329,1.27303828 C82.4020156,1.29313464 82.3887451,1.32165645 82.3880564,1.35179976 L82.3880564,3.09823923 C82.3880564,3.09823923 82.3824478,3.21541249 82.5234366,3.21541249 Z M97.7021733,7.71426986 C97.7759827,7.71426986 97.835817,7.77350904 97.835817,7.84658427 L97.835817,9.58516715 C97.835817,9.62025911 97.8217367,9.6539138 97.7966736,9.67872757 C97.7716106,9.70354133 97.7376178,9.71748156 97.7021733,9.71748156 L96.8399558,9.71748156 C96.800985,9.71444954 96.762627,9.72846232 96.7349855,9.75582889 C96.707344,9.78319545 96.6931904,9.82117189 96.6962529,9.85975512 C96.6992519,10.3076075 96.7031202,10.9244885 96.7058622,11.5598843 L96.7076764,12.0375509 C96.7084467,12.2757682 96.7089884,12.5112976 96.7091964,12.736202 L96.7091362,13.1694921 C96.7083793,13.7220519 96.7047501,14.1614271 96.6962529,14.337104 C96.6157793,16.1638965 96.2651442,17.1313567 94.6527975,17.9465842 C94.3970063,18.0845895 94.2806069,17.9110158 94.2806069,17.9110158 C94.2806069,17.9110158 93.1453539,16.4327935 93.0806876,16.338893 C93.0160213,16.2449924 93.0921838,16.1553601 93.1812796,16.1112553 C94.0205047,15.7029301 94.1268448,15.2718413 94.1268448,14.0397523 L94.1268448,9.86686879 C94.1301012,9.82997918 94.1174228,9.79345013 94.0919514,9.76633395 C94.06648,9.73921776 94.0305993,9.72405212 93.9932011,9.72459524 L81.6649282,9.72459524 C81.5908828,9.72459938 81.5306352,9.6655856 81.5298475,9.59228083 L81.5298475,7.84658427 C81.5306352,7.7732795 81.5908828,7.71426986 81.6649282,7.71426986 Z M91.1985549,11.1428085 C92.0180405,11.1428085 92.6832855,11.7430427 92.6865635,12.4854153 L92.6865635,15.7947523 C92.6865635,16.5392314 92.0203593,17.1427511 91.1985549,17.1427511 L83.8760649,17.1427511 C83.0542605,17.1427511 82.3880564,16.5392314 82.3880564,15.7947523 L82.3880564,12.4908073 C82.3880564,11.7463281 83.0542605,11.1428085 83.8760649,11.1428085 Z M89.9307717,12.764451 L85.1453362,12.764451 C85.0210008,12.764451 84.9199769,12.8553648 84.9191589,12.9679988 L84.9191589,15.3040807 L84.9269214,15.3571257 C84.9371408,15.391422 84.9571876,15.4230151 84.9854941,15.4484895 C85.0279539,15.4867011 85.0854875,15.5079876 85.1453362,15.507633 L89.9322597,15.507633 C90.0563521,15.507633 90.156949,15.4164971 90.156949,15.3040807 L90.156949,13.0300068 L90.1554609,12.9679988 L90.1471296,12.914045 C90.1206186,12.8281534 90.0339006,12.7650637 89.9307717,12.764451 Z M114.847578,15.7916671 L103.969649,15.7916671 C103.798142,15.7940373 103.650701,15.6666979 103.622728,15.4920445 C103.600123,15.3444749 103.671423,15.1985058 103.799817,15.1295012 L112.363973,10.7040754 L113.589082,10.0613849 C113.823791,9.93251175 114.041388,9.77289066 114.236474,9.58648308 C114.431416,9.39429239 114.585194,9.16209402 114.687907,8.90484167 C114.785279,8.64130385 114.834495,8.36142635 114.833062,8.0793814 C114.840891,6.96294015 113.987855,6.04207173 112.906853,6.00000055 L100.851715,6.00000055 C100.77716,6.00000055 100.716721,6.06237826 100.716721,6.13932506 L100.716721,6.13932506 L100.716721,8.08687197 C100.716717,8.16323749 100.776276,8.22537534 100.850264,8.22619648 L111.419012,8.22619648 C111.521549,8.22524605 111.606635,8.30777976 111.612069,8.4134606 C111.610613,8.48440074 111.571607,8.5488124 111.51046,8.58124926 L111.430625,8.62619265 L111.430625,8.62619265 L111.38853,8.65016246 L111.212892,8.74604169 C109.889077,9.47562272 102.281494,13.3003052 101.565879,13.8201504 C101.483141,13.8725844 101.404757,13.9280146 101.329276,13.9834448 C101.176672,14.0898422 101.037678,14.2156777 100.915584,14.357973 L100.915584,14.357973 C100.890907,14.3864371 100.867683,14.4149013 100.845909,14.4448636 L100.838652,14.4538522 C100.816394,14.481817 100.796073,14.5102812 100.777686,14.5392447 L100.768977,14.5512296 C100.748655,14.5796937 100.731237,14.6081579 100.712367,14.6381201 L100.712367,14.650105 C100.693496,14.6815654 100.674626,14.7130258 100.657208,14.7459843 L100.657208,14.7459843 C100.619567,14.8164487 100.585648,14.8889635 100.555599,14.9632107 L100.555599,14.9632107 C100.542535,14.9961691 100.529471,15.0321239 100.516407,15.0665805 L100.507698,15.0950446 C100.497537,15.1220106 100.490279,15.1489767 100.48157,15.1774408 L100.471409,15.2148936 C100.471409,15.2403616 100.458345,15.2643314 100.452539,15.2897993 C100.446733,15.3152672 100.452539,15.3182634 100.442378,15.3332446 C100.432217,15.3482257 100.432217,15.3811842 100.427862,15.405154 C100.423508,15.4291238 100.427862,15.4366144 100.427862,15.4515955 C100.427862,15.4665766 100.420605,15.5010332 100.417702,15.525003 C100.414798,15.5489728 100.417702,15.5549653 100.417702,15.5699464 C100.417702,15.5849276 100.417702,15.6238785 100.410444,15.6508445 C100.411164,15.6643173 100.411164,15.6778208 100.410444,15.6912936 C100.410444,15.7302445 100.410444,15.7691955 100.410444,15.8096445 L100.410444,15.8096445 C100.410444,15.8470973 100.410444,15.8845502 100.410444,15.922003 C100.410444,15.9324898 100.410444,15.9429766 100.410444,15.9534634 C100.410444,15.9639501 100.410444,16.0073954 100.410444,16.0328633 C100.410444,16.0583313 100.410444,16.0598294 100.410444,16.0733124 C100.410444,16.0867954 100.410444,16.1197539 100.419153,16.1422256 C100.427862,16.1646973 100.419153,16.1721879 100.426411,16.187169 C100.433669,16.2021501 100.426411,16.2291161 100.436572,16.2500897 C100.446733,16.2710633 100.443829,16.280052 100.446733,16.2950331 L100.459797,16.3549576 L100.47286,16.4013991 C100.47286,16.4208746 100.483021,16.4403501 100.488828,16.4583274 C100.492792,16.4740846 100.497639,16.4895911 100.503343,16.5047689 L100.520762,16.5601991 L100.53818,16.6066406 C100.53818,16.624618 100.551244,16.6425953 100.558502,16.6605727 L100.577372,16.7055161 C100.577372,16.7219953 100.591888,16.7399727 100.600597,16.7564519 C100.609306,16.7729312 100.613661,16.7864142 100.620919,16.8013953 C100.628177,16.8163764 100.638337,16.8343538 100.645595,16.850833 C100.652853,16.8673123 100.661562,16.8807953 100.670272,16.8942783 L100.696399,16.9422179 L100.722527,16.9856632 L100.750107,17.0321047 L100.777686,17.0725538 L100.808169,17.1174972 L100.838652,17.1579462 L100.870586,17.2013915 L100.90252,17.2403424 L100.935905,17.2807915 L100.969291,17.3182443 L101.00558,17.3571952 L101.040417,17.3931499 L101.078158,17.4306028 L101.114446,17.4650594 L101.153638,17.499516 L101.191379,17.5324745 L101.232022,17.5654329 L101.272666,17.5968933 L101.314761,17.6268556 L101.355404,17.6568178 L101.398951,17.685282 L101.442497,17.7137461 L101.486044,17.7392141 L101.531042,17.764682 L101.57604,17.7886518 L101.622489,17.8126216 L101.668939,17.8350933 L101.71684,17.8560669 L101.76329,17.8755423 L101.812643,17.8950178 L101.860544,17.911497 L101.911348,17.9279763 L101.960701,17.9429574 L102.011505,17.9579386 L102.06231,17.9699235 L102.113114,17.9819084 L102.16537,17.990897 C102.182788,17.990897 102.200207,17.990897 102.217626,17.9998857 L102.269882,17.9998857 L102.323589,17.9998857 L102.429552,17.9998857 L102.429552,17.9998857 L102.541322,17.9998857 L114.863545,17.9998857 C114.938339,17.9998857 114.999195,17.9377497 114.999995,17.8605612 L114.999995,15.9309917 C115.000317,15.8907039 114.98373,15.8522428 114.954507,15.8255296 C114.925284,15.7988165 114.886288,15.7864671 114.847578,15.7916671 Z M28.3208944,17.8577726 C28.3264983,17.9400171 28.4000556,18.0030159 28.4866814,17.9998857 L32.4446585,17.9998857 C32.5315666,18.0030474 32.6055649,17.9402366 32.611939,17.8577726 L32.611939,0.99930573 C32.6055649,0.916841765 32.5315666,0.854030985 32.4446585,0.857192622 L28.4866814,0.857192622 C28.4000556,0.854062408 28.3264983,0.91706127 28.3208944,0.99930573 L28.3208944,17.8577726 Z M0,17.8545815 C0.00637406666,17.9388972 0.0803724111,18.0031183 0.167280541,17.9997598 L4.12525764,17.9997598 C4.2118834,18.0030862 4.28544065,17.9386727 4.2910446,17.8545815 L4.2910446,7.00250182 C4.28544065,6.91841057 4.2118834,6.85399707 4.12525764,6.8573235 L0.167280541,6.8573235 C0.0800857927,6.85318305 0.00560714812,6.91782108 0,7.00250182 L0,17.8545815 Z M26.5432391,15.0239332 L24.6420346,13.4907131 C24.6038637,13.4596334 24.5772847,13.4164838 24.5666245,13.3682887 C24.5548288,13.3188744 24.5620824,13.2668043 24.5869272,13.2225453 C26.7203878,9.18694164 25.5057114,4.18509614 21.762248,1.59096274 C18.0187845,-1.00317066 12.9350909,-0.365949574 9.9403311,3.07279372 C6.94557128,6.51153701 6.99058728,11.6599949 10.0450139,15.0453172 C13.0994405,18.4306395 18.1934915,18.9779798 21.8910163,16.3181343 C21.9665328,16.2608065 22.0707339,16.2608065 22.1462505,16.3181343 L24.1852234,17.9635769 C24.2193654,17.9904821 24.2627993,18.0025411 24.3058424,17.9970654 C24.3488856,17.9915897 24.3879597,17.9690346 24.4143541,17.9344282 L26.5693426,15.2542078 C26.6249489,15.1832435 26.6133031,15.0805091 26.5432391,15.0239332 Z M17.6027922,14.2048556 C14.82277,14.7149573 12.1355603,12.801347 11.6221915,9.94623451 C11.1088228,7.09112204 12.9563702,4.358434 15.7407429,3.85270454 C18.5251157,3.34697507 21.2036243,5.25621311 21.7213436,8.11132558 C22.2390629,10.966438 20.387165,13.6947538 17.6027922,14.2048556 Z M57.334153,0.857192622 L53.3747978,0.857192622 C53.2881419,0.854060553 53.214559,0.917043784 53.2089531,0.999267838 L53.2089531,17.8578105 C53.214559,17.9400346 53.2881419,18.0030178 53.3747978,17.9998857 L57.334153,17.9998857 C57.4208089,18.0030178 57.4943918,17.9400346 57.4999977,17.8578105 L57.4999977,1.00352648 C57.498442,0.963232658 57.4800875,0.925179986 57.4489789,0.897753784 C57.4178703,0.870327582 57.3765607,0.855778691 57.334153,0.857192622 Z M3.00373122,5.79675419e-05 C1.81879198,5.79675419e-05 0.858208921,0.959438608 0.858208921,2.1428946 C0.858208921,3.3263506 1.81879198,4.28573124 3.00373122,4.28573124 C4.18867047,4.28573124 5.14925353,3.3263506 5.14925353,2.1428946 C5.14925353,1.57457899 4.92320807,1.02954011 4.52084459,0.627680287 C4.11848111,0.225820465 3.57275912,5.79675419e-05 3.00373122,5.79675419e-05 Z M51.3110914,0.857192622 L47.2947323,0.857192622 C47.2276332,0.856733356 47.1651008,0.891175771 47.1298128,0.948153119 L43.3992195,7.56503154 C43.3992195,7.56503154 43.3722068,7.61470781 43.3352421,7.61470781 L43.3352421,7.61470781 C43.2982774,7.61470781 43.2712647,7.56503154 43.2712647,7.56503154 L39.5406714,0.948153119 C39.5053834,0.891175771 39.442851,0.856733356 39.3757518,0.857192622 L35.3608145,0.857192622 C35.2955764,0.857548698 35.235892,0.894014996 35.2060013,0.951905193 C35.1761106,1.00979539 35.1809841,1.0794828 35.2186425,1.13266496 L41.1898666,11.1573351 C41.2468801,11.2541185 41.2768302,11.3644037 41.2765915,11.4766825 L41.2765915,17.8267285 C41.2773722,17.9225897 41.3554367,17.9998857 41.4514631,17.9998857 L45.2275514,17.9998857 C45.3235778,17.9998857 45.4016423,17.9225897 45.402423,17.8267285 L45.402423,11.4766825 C45.4021843,11.3644037 45.4321344,11.2541185 45.4891479,11.1573351 L51.460372,1.13266496 C51.4988403,1.0784378 51.5031364,1.00711105 51.471454,0.948672893 C51.4397717,0.890234735 51.3776052,0.854819331 51.3110914,0.857192622 L51.3110914,0.857192622 Z"></path>
                    </g>
                </g>
            </g>
        </g>
    </g>
</svg>